<svg xmlns="http://www.w3.org/2000/svg" style="fill: #ffffff;" enable-background="new 0 0 50 50" viewBox="0 0 50 50" width="500" height="500">
    <path color="rgb(0, 0, 0)" overflow="visible" font-family="Bitstream Vera Sans" style="text-indent:0;text-align:start;line-height:normal;text-transform:none;block-progression:tb;-inkscape-font-specification:Bitstream Vera Sans" enable-background="accumulate" d="M 24.875 3.3125 C 20.1826 3.41795 17.2134 5.31539 15.9375 8.25 C 14.7224 11.0447 14.9769 14.5619 15.8438 18.2188 C 15.3783 18.7657 14.9976 19.5335 15.0938 20.6875 L 15.0938 20.7188 L 15.0938 20.75 C 15.2602 21.9706 15.6273 22.8275 16.0938 23.4375 C 16.3155 23.7275 16.6324 23.7417 16.9063 23.9063 C 17.1485 25.27 17.6899 26.5716 18.3125 27.5938 A 1.0001 1.0001 0 0 0 18.5 28 C 18.5 28 18.6027 28.1272 18.625 28.1563 C 18.9371 28.6261 19.0938 29.2766 19.0938 30 C 19.0938 30.7685 19.0823 31.4848 19 32.2813 C 18.698 33.0391 17.9501 33.6437 16.75 34.25 C 15.4974 34.8828 13.8548 35.4665 12.1875 36.1875 C 10.5202 36.9085 8.8265 37.7757 7.46875 39.1563 C 6.111 40.5368 5.13699 42.4442 5 44.9375 L 4.9375 46 L 6 46 L 44 46 L 45.0625 46 L 45 44.9375 C 44.8631 42.4461 43.914 40.5375 42.5625 39.1563 C 41.211 37.775 39.5119 36.9089 37.8438 36.1875 C 36.1756 35.4661 34.5248 34.8852 33.25 34.25 C 32.0149 33.6346 31.2407 33.0038 30.9063 32.2188 C 30.8287 31.272 30.8125 30.5255 30.8125 29.6875 C 30.8125 29.151 30.9977 28.6692 31.3125 28.1875 C 31.3198 28.1771 31.3365 28.1667 31.3438 28.1563 C 31.3484 28.1503 31.4063 28.0938 31.4063 28.0938 A 1.0001 1.0001 0 0 0 31.6563 27.625 C 32.2623 26.5859 32.7641 25.2669 33 23.9375 C 33.3117 23.7743 33.6638 23.7546 33.9063 23.4375 C 34.3878 22.8078 34.6697 21.914 34.7813 20.6875 C 34.8693 19.6305 34.5673 18.8609 34.0938 18.2813 C 34.6141 16.6782 35.2297 14.1171 35.0313 11.5 C 34.9223 10.0631 34.5423 8.63083 33.6875 7.4375 C 32.9158 6.36025 31.6636 5.62012 30.0938 5.28125 C 29.0353 3.86746 27.1114 3.3125 24.9063 3.3125 L 24.875 3.3125 Z M 24.9063 5.3125 C 24.9187 5.3125 24.9251 5.31246 24.9375 5.3125 C 26.9344 5.3197 28.2095 5.88154 28.625 6.59375 L 28.875 7.03125 L 29.375 7.09375 C 30.7482 7.28686 31.5048 7.8152 32.0625 8.59375 C 32.6202 9.3723 32.9402 10.4557 33.0313 11.6563 C 33.2133 14.0574 32.5196 16.8763 32.0625 18.1563 L 31.75 19 L 32.5313 19.4063 C 32.5235 19.4347 32.8524 19.766 32.8125 20.5 C 32.811 20.5163 32.8141 20.5152 32.8125 20.5313 C 32.7205 21.4733 32.4782 22.0021 32.3125 22.2188 C 32.144 22.4391 32.0604 22.4063 32.0938 22.4063 L 31.2188 22.4063 L 31.0938 23.2813 C 30.9211 24.5764 30.2618 26.2109 29.6875 27.0313 L 29.6563 27.0313 C 29.5988 27.1174 29.554 27.2207 29.5 27.3125 C 29.2386 27.6184 28.8435 28.02 28.2813 28.5 C 27.3479 29.2968 26.1111 30 25 30 C 23.9 30 22.6482 29.2609 21.6875 28.4375 C 20.8543 27.7234 20.3598 27.1101 20.2188 26.9375 C 20.2143 26.9312 20.2232 26.9126 20.2188 26.9063 C 19.6299 26.0566 18.9519 24.5611 18.7813 23.2813 L 18.6875 22.4063 L 17.875 22.4063 C 17.8401 22.3894 17.748 22.3388 17.6563 22.2188 C 17.4787 21.9865 17.2308 21.4512 17.0938 20.5313 C 17.0921 20.5112 17.0947 20.5196 17.0938 20.5 C 17.0916 20.4844 17.0959 20.4846 17.0938 20.4688 C 17.0777 19.7105 17.5488 19.2904 17.4688 19.3438 L 18.0313 18.9375 L 17.875 18.25 C 16.9521 14.6072 16.8072 11.3029 17.7813 9.0625 C 18.7526 6.82832 20.7227 5.41416 24.9063 5.3125 Z M 21.0938 30.5313 C 22.1482 31.3095 23.467 32 25 32 C 26.4984 32 27.786 31.3419 28.8125 30.5938 C 28.817 31.2038 28.8365 31.8271 28.9063 32.5938 L 28.9063 32.7188 L 28.9688 32.8438 C 29.145 33.304 29.3934 33.696 29.6875 34.0625 A 1.0001 1.0001 0 0 0 29.6563 34.1875 C 29.6563 34.1875 29.4185 34.8421 28.7188 35.5625 C 28.019 36.2829 26.9348 37 25 37 C 23.0727 37 21.9478 36.2498 21.2188 35.5 C 20.4897 34.7502 20.25 34.0625 20.25 34.0625 C 20.5377 33.6882 20.777 33.2838 20.9375 32.8125 L 20.9688 32.7188 L 21 32.625 C 21.0844 31.8653 21.0935 31.183 21.0938 30.5313 Z M 31.25 35.4375 C 31.6002 35.6634 31.9653 35.8739 32.3438 36.0625 C 33.8034 36.7898 35.4619 37.3526 37.0313 38.0313 C 38.6006 38.7099 40.0671 39.4813 41.125 40.5625 C 41.9684 41.4245 42.476 42.5743 42.75 44 L 7.25 44 C 7.52535 42.5754 8.02665 41.4251 8.875 40.5625 C 9.93913 39.4805 11.4298 38.7103 13 38.0313 C 14.5702 37.3522 16.212 36.7922 17.6563 36.0625 C 18.0173 35.8801 18.3846 35.6868 18.7188 35.4688 C 18.9434 35.8724 19.2843 36.3951 19.7813 36.9063 C 20.8022 37.9564 22.5273 39 25 39 C 27.4652 39 29.156 37.9671 30.1563 36.9375 C 30.7026 36.3751 31.036 35.8499 31.25 35.4375 Z" />
</svg>